HIERARCHY
ROOT Hips
{
	OFFSET 0.000000 0.000000 0.000000
	CHANNELS 6 Xposition Yposition Zposition Yrotation Xrotation Zrotation
	JOINT Chest
	{
		OFFSET 0.000000 -0.009281 11.569106
		CHANNELS 3 Yrotation Xrotation Zrotation
		JOINT Chest2
		{
			OFFSET -0.000000 0.016865 9.269641
			CHANNELS 3 Yrotation Xrotation Zrotation
			JOINT Chest3
			{
				OFFSET -0.000000 0.000001 8.374491
				CHANNELS 3 Yrotation Xrotation Zrotation
				JOINT Chest4
				{
					OFFSET -0.000000 0.000001 8.374493
					CHANNELS 3 Yrotation Xrotation Zrotation
					JOINT Neck
					{
						OFFSET -0.000000 0.000002 12.152554
						CHANNELS 3 Yrotation Xrotation Zrotation
						JOINT Head
						{
							OFFSET -0.000000 0.040101 7.802319
							CHANNELS 3 Yrotation Xrotation Zrotation
							End Site
							{
								OFFSET -0.000000 0.020947 14.853096
							}
						}
					}
					JOINT RightCollar
					{
						OFFSET 2.894404 0.000001 6.791374
						CHANNELS 3 Yrotation Xrotation Zrotation
						JOINT RightShoulder
						{
							OFFSET 13.574684 0.000001 0.000000
							CHANNELS 3 Yrotation Xrotation Zrotation
							JOINT RightElbow
							{
								OFFSET 23.923903 0.000002 0.000000
								CHANNELS 3 Yrotation Xrotation Zrotation
								JOINT RightWrist
								{
									OFFSET 19.846718 0.012767 0.000000
									CHANNELS 3 Yrotation Xrotation Zrotation
									End Site
									{
										OFFSET 14.973145 0.000001 0.000000
									}
								}
							}
						}
					}
					JOINT LeftCollar
					{
						OFFSET -2.894404 0.000001 6.791374
						CHANNELS 3 Yrotation Xrotation Zrotation
						JOINT LeftShoulder
						{
							OFFSET -13.574684 -0.000001 0.000000
							CHANNELS 3 Yrotation Xrotation Zrotation
							JOINT LeftElbow
							{
								OFFSET -23.923903 -0.000002 0.000000
								CHANNELS 3 Yrotation Xrotation Zrotation
								JOINT LeftWrist
								{
									OFFSET -19.846718 0.012763 0.000000
									CHANNELS 3 Yrotation Xrotation Zrotation
									End Site
									{
										OFFSET -14.973145 -0.000001 0.000000
									}
								}
							}
						}
					}
				}
			}
		}
	}
	JOINT RightHip
	{
		OFFSET 9.469263 0.004643 0.045487
		CHANNELS 3 Yrotation Xrotation Zrotation
		JOINT RightKnee
		{
			OFFSET 0.000000 0.002661 -40.478676
			CHANNELS 3 Yrotation Xrotation Zrotation
			JOINT RightAnkle
			{
				OFFSET 0.000000 0.049106 -35.224068
				CHANNELS 3 Yrotation Xrotation Zrotation
				JOINT RightToe
				{
					OFFSET -0.000001 12.539529 -6.151390
					CHANNELS 3 Yrotation Xrotation Zrotation
					End Site
					{
						OFFSET -0.000001 5.044994 -1.291870
					}
				}
			}
		}
	}
	JOINT LeftHip
	{
		OFFSET -9.469263 0.004641 0.045487
		CHANNELS 3 Yrotation Xrotation Zrotation
		JOINT LeftKnee
		{
			OFFSET 0.000000 0.002661 -40.478676
			CHANNELS 3 Yrotation Xrotation Zrotation
			JOINT LeftAnkle
			{
				OFFSET 0.000000 0.049106 -35.224068
				CHANNELS 3 Yrotation Xrotation Zrotation
				JOINT LeftToe
				{
					OFFSET -0.000001 12.539529 -6.151390
					CHANNELS 3 Yrotation Xrotation Zrotation
					End Site
					{
						OFFSET -0.000001 5.044994 -1.291870
					}
				}
			}
		}
	}
}
MOTION
Frames: 9
Frame Time: 0.016667
-82.704697 13.384366 82.812874 -8.879006 -10.235926 -99.338626 -2.749679 -4.039115 -1.252614 0.499340 -0.526098 -0.649038 0.499341 -0.526098 -0.649038 0.373944 -0.395105 -0.486345 5.494424 -20.322471 -1.476015 9.557462 -1.616784 -1.031654 10.865672 -0.777775 -3.995354 56.008019 -0.328732 -22.789783 -7.967762 -28.680746 -16.906612 0.802017 -3.265985 0.364829 -8.720904 -7.089934 -4.268893 -83.392450 -4.760976 -20.551064 -10.021640 20.595957 -24.033093 5.449290 6.756533 -22.774865 9.465439 5.697845 2.132915 4.040380 -14.078528 -2.390777 1.100203 -1.334124 4.022241 -0.255212 3.208848 -1.099345 2.098174 -6.262362 -5.088019 4.430358 -43.703911 8.778953 15.910523 -27.025693 -17.976604 0.963935 68.384312 4.772072 
-81.430061 12.478763 82.381180 -7.839327 -11.401140 -98.322185 -1.879923 -3.462256 -1.464878 0.500335 -0.543973 -0.509231 0.500335 -0.543974 -0.509231 0.374794 -0.408397 -0.381475 6.148720 -19.970373 -1.921615 10.622316 -0.959826 -1.622389 11.029296 -0.777821 -3.699096 55.914142 -1.849866 -21.506394 -8.214798 -29.229009 -16.772086 0.962510 -3.708946 -0.197085 -8.699922 -6.436406 -3.972702 -83.526021 -5.212601 -20.000773 -9.645267 20.741025 -23.012159 5.828487 6.219829 -22.346634 10.568871 6.138011 0.440961 4.757161 -15.401689 -0.589324 0.078263 0.185141 2.894128 -0.106138 3.257224 -1.117829 3.729619 -3.020218 -3.799778 6.543768 -45.918908 6.521766 18.284642 -27.128943 -13.405360 -17.613041 68.467777 -9.927467 
-80.355537 12.015120 81.896225 -6.331909 -12.274631 -97.951497 -1.141998 -2.363082 -1.153757 0.451104 -0.613907 -0.354760 0.451104 -0.613907 -0.354758 0.337967 -0.460692 -0.265614 6.757419 -19.543775 -2.353258 11.609960 -0.162707 -2.192637 10.890305 -1.159907 -3.847217 56.143175 -3.188629 -19.189666 -8.487738 -29.930224 -16.569899 0.692159 -4.254510 -0.718647 -8.478481 -6.399452 -4.039298 -83.762954 -5.023925 -19.923469 -8.851013 20.600619 -21.646258 6.108111 6.222415 -22.421752 11.528886 7.454781 0.707772 5.821747 -17.052641 -1.041000 -0.780165 1.844089 2.824666 -0.171225 3.110294 -1.373141 4.737772 1.060668 -2.485386 7.926510 -47.738518 4.856615 20.388173 -26.282805 -10.235858 -28.153819 65.844390 -17.621000 
-79.186478 11.603663 81.438553 -5.733686 -12.894362 -97.267331 -0.612930 -2.028674 -0.877072 0.359001 -0.686091 -0.222725 0.359000 -0.686092 -0.222725 0.268997 -0.514699 -0.166639 7.300333 -19.138217 -2.778363 12.478675 0.598757 -2.769190 10.775497 -1.695419 -4.043789 56.399013 -4.491259 -16.509324 -8.755932 -30.796800 -16.315618 0.141875 -4.872773 -0.955293 -8.204255 -6.542562 -4.236207 -83.993794 -4.720617 -19.652915 -8.033665 20.685542 -20.256967 6.662931 6.530132 -22.871093 12.157787 7.791852 1.245894 6.615901 -18.369153 -2.925933 -1.499355 3.532399 2.924959 0.062234 2.895290 -1.035484 5.235490 4.533316 -2.578747 7.985223 -49.062389 4.156340 21.023765 -25.507056 -8.218610 -30.175465 62.869549 -18.371841 
-77.939423 11.211301 81.034943 -5.594147 -13.650571 -96.279685 0.123817 -2.095657 -0.680819 0.268796 -0.725853 -0.135702 0.268793 -0.725854 -0.135704 0.201431 -0.544451 -0.101459 7.742486 -18.814279 -3.192741 13.163654 1.213486 -3.361570 10.670519 -2.040621 -4.263429 56.724274 -6.169697 -13.872760 -9.053184 -31.537661 -16.077169 -0.623052 -5.499878 -0.847087 -7.954489 -6.857381 -4.387234 -84.175675 -4.569144 -19.193113 -7.428096 21.317476 -19.006241 7.595373 6.900404 -23.451345 13.042055 7.418849 1.461756 7.148115 -19.133604 -4.181546 -2.078539 4.896752 2.729266 0.159488 2.763231 -0.935293 5.666313 7.642335 -4.421851 6.083776 -50.216835 5.128543 21.151914 -24.230147 -6.264159 -29.078523 59.273584 -16.816750 
-76.693199 10.677168 80.687271 -5.634616 -14.480957 -95.377171 0.953047 -2.307511 -0.263149 0.217676 -0.745064 -0.078929 0.217677 -0.745064 -0.078928 0.163157 -0.558826 -0.058930 8.083350 -18.573461 -3.602833 13.661237 1.679002 -3.983742 10.676930 -2.160443 -4.219235 57.022767 -7.878358 -11.393442 -9.406800 -31.955679 -15.913258 -1.648400 -6.091024 -0.480918 -7.882165 -6.869770 -4.413906 -84.317948 -4.420592 -18.267314 -6.964382 22.267940 -17.738980 8.679352 7.317968 -24.039501 14.113625 6.616723 1.533080 7.563693 -19.406480 -4.017467 -3.049294 5.994836 1.174314 0.450474 2.582064 -0.462201 6.194257 10.689275 -7.352520 2.600983 -51.083801 7.921137 20.907216 -22.900417 -4.562741 -27.093912 55.352707 -14.720111 
-75.464005 10.153654 80.429176 -5.661950 -15.006366 -94.502962 1.503780 -2.448547 0.202398 0.215882 -0.743599 -0.022797 0.215883 -0.743598 -0.022797 0.161882 -0.557707 -0.016835 8.324531 -18.408874 -4.015814 13.971980 2.008090 -4.649027 10.722709 -2.309777 -4.035897 57.219281 -9.343933 -8.772249 -9.734697 -32.242837 -15.764012 -2.851846 -6.455549 -0.125688 -8.037184 -6.492463 -4.262431 -84.449668 -4.027009 -16.944079 -6.390992 23.171053 -16.135752 9.652889 7.947879 -24.654473 14.976378 5.731506 1.622373 7.867762 -19.384043 -3.849389 -3.984135 7.145504 -0.137487 0.673257 2.171415 -0.098202 6.489553 13.728415 -10.537542 -1.054466 -51.045835 11.421765 20.405597 -21.500129 -3.465745 -24.828714 50.875733 -12.321718 
-74.300911 9.702778 80.164749 -5.587313 -15.188389 -93.804643 1.780735 -2.459388 0.794563 0.236972 -0.745896 0.060601 0.236971 -0.745895 0.060601 0.177802 -0.559399 0.045740 8.482771 -18.271087 -4.437601 14.125681 2.291214 -5.359665 10.750607 -2.609465 -3.802596 57.274118 -10.394890 -5.828778 -9.954640 -32.621462 -15.522100 -4.063530 -6.575787 0.164635 -8.229976 -6.093484 -4.057540 -84.674538 -3.175039 -15.740673 -5.466137 23.757158 -13.994035 10.445355 8.914713 -25.327286 15.407121 4.996249 1.803704 8.118012 -19.352352 -4.449753 -4.467843 8.404644 -0.290078 0.673279 1.651746 -0.092267 6.515073 16.659234 -13.053833 -3.905143 -50.109512 14.313526 19.758590 -19.853208 -2.463270 -22.704848 45.642456 -10.053289 
-73.147697 9.350871 79.958305 -5.618872 -15.143223 -93.187140 1.899533 -2.583877 1.457865 0.247230 -0.782935 0.190099 0.247231 -0.782935 0.190099 0.185664 -0.587124 0.142889 8.615928 -18.098797 -4.881271 14.225100 2.640138 -6.116516 10.832020 -2.957293 -3.585506 57.169380 -11.105736 -2.507377 -10.007867 -33.115008 -15.218698 -5.227781 -6.531123 0.492772 -8.347108 -5.524145 -3.879132 -85.001308 -2.031697 -14.531781 -4.172869 24.087431 -11.471392 11.164243 10.075208 -25.911684 15.521607 4.162662 1.905350 8.362743 -19.299919 -5.195048 -4.703454 9.633065 -0.020183 0.534641 1.163454 -0.272514 6.319884 19.193672 -14.086744 -4.983706 -48.486762 15.327785 19.096779 -18.316231 -1.663650 -20.676507 40.171563 -8.138251 
